<svg width="41" height="41" viewBox="0 0 41 41" fill="none" xmlns="http://www.w3.org/2000/svg">
<g filter="url(#filter0_d_4244_833)">
<path d="M32.875 9.28125C32.875 7.91373 32.3318 6.60222 31.3648 5.63523C30.3978 4.66825 29.0863 4.125 27.7188 4.125H13.2812C11.9137 4.125 10.6022 4.66825 9.63523 5.63523C8.66825 6.60222 8.125 7.91373 8.125 9.28125V23.7188C8.125 25.0863 8.66825 26.3978 9.63523 27.3648C10.6022 28.3318 11.9137 28.875 13.2812 28.875H16.9051C16.3798 28.2388 15.9254 27.5472 15.55 26.8125H13.2812C12.4607 26.8125 11.6738 26.4866 11.0936 25.9064C10.5134 25.3262 10.1875 24.5393 10.1875 23.7188V12.375H19.1326C20.9785 11.0756 23.2287 10.3125 25.6562 10.3125C28.3994 10.3125 30.9156 11.286 32.875 12.9051V9.28125ZM25.6562 10.3125H10.1875V9.28125C10.1875 8.46074 10.5134 7.67383 11.0936 7.09364C11.6738 6.51345 12.4607 6.1875 13.2812 6.1875H27.7188C28.5393 6.1875 29.3262 6.51345 29.9064 7.09364C30.4866 7.67383 30.8125 8.46074 30.8125 9.28125V10.3125H25.6562ZM24.3672 17.5312C24.3672 17.1894 24.503 16.8615 24.7447 16.6197C24.9865 16.378 25.3144 16.2422 25.6562 16.2422C25.9981 16.2422 26.326 16.378 26.5678 16.6197C26.8095 16.8615 26.9453 17.1894 26.9453 17.5312C26.9453 17.8731 26.8095 18.201 26.5678 18.4428C26.326 18.6845 25.9981 18.8203 25.6562 18.8203C25.3144 18.8203 24.9865 18.6845 24.7447 18.4428C24.503 18.201 24.3672 17.8731 24.3672 17.5312ZM26.6875 25.7812C26.6875 26.0548 26.5789 26.3171 26.3855 26.5105C26.1921 26.7039 25.9298 26.8125 25.6562 26.8125C25.3827 26.8125 25.1204 26.7039 24.927 26.5105C24.7336 26.3171 24.625 26.0548 24.625 25.7812V21.6562C24.625 21.3827 24.7336 21.1204 24.927 20.927C25.1204 20.7336 25.3827 20.625 25.6562 20.625C25.9298 20.625 26.1921 20.7336 26.3855 20.927C26.5789 21.1204 26.6875 21.3827 26.6875 21.6562V25.7812ZM16.375 21.6562C16.375 20.4374 16.6151 19.2305 17.0815 18.1045C17.5479 16.9784 18.2316 15.9553 19.0934 15.0934C19.9553 14.2316 20.9784 13.5479 22.1045 13.0815C23.2305 12.6151 24.4374 12.375 25.6562 12.375C26.8751 12.375 28.082 12.6151 29.208 13.0815C30.3341 13.5479 31.3572 14.2316 32.2191 15.0934C33.0809 15.9553 33.7646 16.9784 34.231 18.1045C34.6974 19.2305 34.9375 20.4374 34.9375 21.6562C34.9375 24.1178 33.9597 26.4785 32.2191 28.2191C30.4785 29.9597 28.1178 30.9375 25.6562 30.9375C23.1947 30.9375 20.834 29.9597 19.0934 28.2191C17.3528 26.4785 16.375 24.1178 16.375 21.6562ZM18.4375 21.6562C18.4375 23.5708 19.198 25.4069 20.5518 26.7607C21.9056 28.1145 23.7417 28.875 25.6562 28.875C27.5708 28.875 29.4069 28.1145 30.7607 26.7607C32.1145 25.4069 32.875 23.5708 32.875 21.6562C32.875 19.7417 32.1145 17.9056 30.7607 16.5518C29.4069 15.198 27.5708 14.4375 25.6562 14.4375C23.7417 14.4375 21.9056 15.198 20.5518 16.5518C19.198 17.9056 18.4375 19.7417 18.4375 21.6562Z" fill="#2C49FE"/>
</g>
<defs>
<filter id="filter0_d_4244_833" x="0" y="0" width="41" height="41" filterUnits="userSpaceOnUse" color-interpolation-filters="sRGB">
<feFlood flood-opacity="0" result="BackgroundImageFix"/>
<feColorMatrix in="SourceAlpha" type="matrix" values="0 0 0 0 0 0 0 0 0 0 0 0 0 0 0 0 0 0 127 0" result="hardAlpha"/>
<feOffset dy="4"/>
<feGaussianBlur stdDeviation="2"/>
<feComposite in2="hardAlpha" operator="out"/>
<feColorMatrix type="matrix" values="0 0 0 0 0 0 0 0 0 0 0 0 0 0 0 0 0 0 0.25 0"/>
<feBlend mode="normal" in2="BackgroundImageFix" result="effect1_dropShadow_4244_833"/>
<feBlend mode="normal" in="SourceGraphic" in2="effect1_dropShadow_4244_833" result="shape"/>
</filter>
</defs>
</svg>
